# xmcd
#
# Track frame offsets: 
#        150
#        12554
#        26374
#        42230
#        55227
#        68858
#        83884
#        95006
#        109024
#        119521
#        132160
#        144214
#        157649
#        169886
#        181966
#        195335
#        205121
#        221029
#        231224
#        244007
#        261133
#        273746
#        287823
#        297019
#
# Disc length: 4070 seconds
#
# Revision: 0
# Processed by: cddbd v1.5.2PL0 Copyright (c) Steve Scherf et al.
# Submitted via: ExactAudioCopyFreeDBPlugin 1.0
#
DISCID=5b0fe418
DTITLE=Various Artist - Black Secular Groups Vol. 2: The Thirties (1931-1939)
DYEAR=1997
DGENRE=Blues
TTITLE0=Grand Central Red Cap Quartet - My Little Dixie Home
TTITLE1=Grand Central Red Cap Quartet - They Kicked the Devil Out of H
TTITLE1=eaven
TTITLE2=Four Southern Singers - Mammy Lou
TTITLE3=Four Southern Singers - Be Ready
TTITLE4=Four Southern Singers - Hambone Am Sweet
TTITLE5=Four Southern Singers - 1. You're Sweet to Your Mammy - 2. Mudd
TTITLE5=er Knows
TTITLE6=Four Southern Singers - Old Man Harlem
TTITLE7=Four Southern Singers - Careless Love
TTITLE8=Mississippi Mud Mashers - Take My Seat and Sit Down
TTITLE9=Mississippi Mud Mashers - Bring It On Home to Grandma
TTITLE10=Mississippi Mud Mashers - Let's Go to Dinner
TTITLE11=Mississippi Mud Mashers - Don't 'Low No Quartet Singin' in He
TTITLE11=re
TTITLE12=Mississippi Mud Mashers - Moonglow
TTITLE13=Mississippi Mud Mashers - Tiger Rag
TTITLE14=Five Jinks - Cushion Foot
TTITLE15=Five Jinks - Za Zu Swing
TTITLE16=Five Jinks - I'm Moaning All Day for You
TTITLE17=Five Jinks - There Goes My Headache
TTITLE18=Five Jinks - Found a Baby Down Dixie Way
TTITLE19=Five Jinks - Dirt-Dishing Daisy
TTITLE20=Norfolk Jazz Quartet - Just Dream of You
TTITLE21=Norfolk Jazz Quartet - Shim Shim Shimmie at the Cricket's Bal
TTITLE21=l
TTITLE22=Oleanders - Mama Don't Allow It
TTITLE23=Oleanders - Ol' Man Mose
EXTD=
EXTT0=
EXTT1=
EXTT2=
EXTT3=
EXTT4=
EXTT5=
EXTT6=
EXTT7=
EXTT8=
EXTT9=
EXTT10=
EXTT11=
EXTT12=
EXTT13=
EXTT14=
EXTT15=
EXTT16=
EXTT17=
EXTT18=
EXTT19=
EXTT20=
EXTT21=
EXTT22=
EXTT23=
PLAYORDER=
